# Blender v3.2.2 OBJ File: ''
# www.blender.org
mtllib HEX.mtl
o Cylinder
v 0.000000 -1.000000 -1.000000
v 0.000000 1.000000 -1.000000
v 0.866025 -1.000000 -0.500000
v 0.866025 1.000000 -0.500000
v 0.866025 -1.000000 0.500000
v 0.866025 1.000000 0.500000
v -0.000000 -1.000000 1.000000
v -0.000000 1.000000 1.000000
v -0.866025 -1.000000 0.500000
v -0.866025 1.000000 0.500000
v -0.866025 -1.000000 -0.500000
v -0.866025 1.000000 -0.500000
v 0.288675 -1.000000 -0.833333
v 0.577350 -1.000000 -0.666667
v 0.577350 1.000000 -0.666667
v 0.288675 1.000000 -0.833333
v 0.000000 -0.333333 -1.000000
v 0.000000 0.333333 -1.000000
v 0.866025 0.333333 -0.500000
v 0.866025 -0.333333 -0.500000
v 0.288675 -0.333333 -0.833333
v 0.577350 -0.333333 -0.666667
v 0.288675 0.333333 -0.833333
v 0.577350 0.333333 -0.666667
v -0.866025 0.500000 0.500000
v -0.866025 0.000000 0.500000
v -0.866025 -0.500000 0.500000
v -0.866025 -1.000000 0.250000
v -0.866025 -1.000000 -0.000000
v -0.866025 -1.000000 -0.250000
v -0.866025 1.000000 -0.250000
v -0.866025 1.000000 0.000000
v -0.866025 1.000000 0.250000
v -0.866025 0.500000 -0.500000
v -0.866025 0.000000 -0.500000
v -0.866025 -0.500000 -0.500000
v -0.866025 -0.500000 0.250000
v -0.866025 -0.500000 -0.000000
v -0.866025 -0.500000 -0.250000
v -0.866025 0.000000 0.250000
v -0.866025 0.000000 -0.000000
v -0.866025 0.000000 -0.250000
v -0.866025 0.500000 0.250000
v -0.866025 0.500000 -0.000000
v -0.866025 0.500000 -0.250000
v -0.417152 -0.500000 -0.000000
v -0.417152 -0.500000 -0.250000
v -0.417152 0.000000 -0.000000
v -0.417152 0.000000 -0.250000
v -0.565274 0.000000 0.250000
v -0.565274 0.000000 -0.000000
v -0.565274 0.500000 0.250000
v -0.565274 0.500000 -0.000000
v 0.182771 -0.333333 -0.649902
v 0.471446 -0.333333 -0.483235
v 0.182771 0.333333 -0.649902
v 0.471446 0.333333 -0.483235
v 0.828797 -1.072661 0.435563
v 0.828797 0.927339 0.435563
v -0.037228 -1.072661 0.935563
v -0.037228 0.927339 0.935563
v 0.828797 0.527339 0.435563
v 0.828797 0.127339 0.435563
v 0.828797 -0.272661 0.435563
v 0.828797 -0.672661 0.435563
v 0.655592 -1.072661 0.535563
v 0.482387 -1.072661 0.635563
v 0.309182 -1.072661 0.735563
v 0.135977 -1.072661 0.835563
v 0.135977 0.927339 0.835563
v 0.309182 0.927339 0.735563
v 0.482387 0.927339 0.635563
v 0.655592 0.927339 0.535563
v -0.037228 0.527339 0.935563
v -0.037228 0.127339 0.935563
v -0.037228 -0.272661 0.935563
v -0.037228 -0.672661 0.935563
v 0.655592 -0.672661 0.535563
v 0.482387 -0.672661 0.635563
v 0.309182 -0.672661 0.735563
v 0.135977 -0.672661 0.835563
v 0.655592 -0.272661 0.535563
v 0.482387 -0.272661 0.635563
v 0.309182 -0.272661 0.735563
v 0.135977 -0.272661 0.835563
v 0.655592 0.127339 0.535563
v 0.482387 0.127339 0.635563
v 0.309182 0.127339 0.735563
v 0.135977 0.127339 0.835563
v 0.655592 0.527339 0.535563
v 0.482387 0.527339 0.635563
v 0.309182 0.527339 0.735563
v 0.135977 0.527339 0.835563
v 0.323485 0.127339 0.760337
v 0.150280 0.127339 0.860337
v 0.323485 0.527339 0.760337
v 0.150280 0.527339 0.860337
v 0.634077 0.127339 0.498299
v 0.460872 0.127339 0.598299
v 0.634077 0.527339 0.498299
v 0.460872 0.527339 0.598299
v 0.580711 -0.672661 0.405865
v 0.407506 -0.672661 0.505865
v 0.580711 -0.272661 0.405865
v 0.407506 -0.272661 0.505865
v 0.321640 -0.672661 0.757141
v 0.148435 -0.672661 0.857141
v 0.321640 -0.272661 0.757141
v 0.148435 -0.272661 0.857141
vt 0.888889 1.000000
vt 0.833333 0.833333
vt 0.888889 0.833333
vt 0.666667 1.000000
vt 0.666667 0.500000
vt 0.250000 0.010000
vt 0.291569 0.034000
vt 0.333138 0.058000
vt 0.500000 1.000000
vt 0.333333 0.875000
vt 0.333333 0.750000
vt 0.042154 0.310000
vt 0.042154 0.250000
vt 0.319282 0.450000
vt 0.208333 1.000000
vt 0.166667 0.875000
vt 0.208333 0.875000
vt -0.000000 0.833333
vt -0.000000 0.666667
vt 0.166667 0.750000
vt 0.542154 0.250000
vt 0.888564 0.410000
vt 0.750000 0.010000
vt 0.888889 0.666667
vt 0.833333 0.500000
vt 0.888889 0.500000
vt 0.833333 0.666667
vt 1.000000 0.666667
vt 0.944444 0.500000
vt 1.000000 0.500000
vt 0.944444 0.666667
vt 1.000000 0.833333
vt 0.944444 0.833333
vt 0.944444 0.666667
vt 1.000000 1.000000
vt 0.944444 1.000000
vt 0.208333 0.625000
vt 0.166667 0.500000
vt 0.208333 0.500000
vt 0.208333 0.750000
vt 0.166667 0.625000
vt 0.333333 0.625000
vt 0.291667 0.500000
vt 0.333333 0.500000
vt 0.291667 0.625000
vt 0.250000 0.500000
vt 0.250000 0.625000
vt 0.291667 0.750000
vt 0.208333 0.750000
vt 0.250000 0.750000
vt 0.250000 0.750000
vt 0.250000 0.875000
vt 0.333333 1.000000
vt 0.291667 0.875000
vt 0.250000 1.000000
vt 0.250000 0.750000
vt 0.208333 0.625000
vt 0.250000 0.625000
vt 0.291667 0.875000
vt 0.291667 0.750000
vt 0.250000 0.875000
vt 0.944444 0.833333
vt 0.888889 0.666667
vt 0.888889 0.833333
vt 0.533333 1.000000
vt 0.500000 0.900000
vt 0.533333 0.900000
vt 0.666667 0.900000
vt 0.666667 0.800000
vt 0.500000 0.500000
vt 0.500000 0.600000
vt 0.500000 0.700000
vt 0.833138 0.058000
vt 0.874708 0.082000
vt 0.533333 0.600000
vt 0.500000 0.500000
vt 0.533333 0.500000
vt 0.533333 0.700000
vt 0.533333 0.800000
vt 0.500000 0.800000
vt 0.666667 0.600000
vt 0.633333 0.500000
vt 0.666667 0.500000
vt 0.633333 0.600000
vt 0.600000 0.500000
vt 0.600000 0.600000
vt 0.566667 0.500000
vt 0.566667 0.600000
vt 0.666667 0.700000
vt 0.600000 0.600000
vt 0.600000 0.700000
vt 0.533333 0.600000
vt 0.633333 0.700000
vt 0.633333 0.800000
vt 0.600000 0.800000
vt 0.566667 0.700000
vt 0.566667 0.800000
vt 0.633333 0.900000
vt 0.633333 0.800000
vt 0.600000 0.900000
vt 0.566667 0.900000
vt 0.566667 0.900000
vt 0.666667 1.000000
vt 0.633333 1.000000
vt 0.600000 1.000000
vt 0.566667 1.000000
vt 0.533333 0.800000
vt 0.566667 0.800000
vt 0.533333 0.900000
vt 0.633333 0.900000
vt 0.600000 0.800000
vt 0.600000 0.900000
vt 0.633333 0.700000
vt 0.633333 0.600000
vt 0.600000 0.700000
vt 0.566667 0.700000
vt 0.566667 0.600000
vt 0.533333 0.700000
vt 0.833333 1.000000
vt 0.457846 0.130000
vt 0.457846 0.130000
vt 0.416277 0.106000
vt 0.374708 0.082000
vt 0.250000 0.010000
vt 0.457846 0.370000
vt 0.388564 0.410000
vt 0.250000 0.490000
vt 0.042154 0.370000
vt 0.042154 0.130000
vt 0.042154 0.190000
vt 0.166667 1.000000
vt -0.000000 0.500000
vt -0.000000 1.000000
vt 0.542154 0.370000
vt 0.750000 0.490000
vt 0.542154 0.310000
vt 0.819282 0.450000
vt 0.957846 0.370000
vt 0.957846 0.130000
vt 0.542154 0.190000
vt 0.542154 0.130000
vt 0.291667 1.000000
vt 0.500000 1.000000
vt 0.750000 0.010000
vt 0.791569 0.034000
vt 0.957846 0.130000
vt 0.916277 0.106000
vn 0.5000 0.0000 -0.8660
vn 1.0000 0.0000 0.0000
vn 0.3493 -0.7155 0.6050
vn -0.5000 0.0000 0.8660
vn 0.0000 1.0000 0.0000
vn -1.0000 0.0000 0.0000
vn -0.5000 0.0000 -0.8660
vn 0.0000 -1.0000 0.0000
vn 0.8660 0.0000 0.5000
vn 0.0000 0.0000 1.0000
vn 0.0000 0.0000 -1.0000
vn -0.8660 0.0000 -0.5000
vn 0.5000 -0.0000 0.8660
vn -0.8659 0.0000 0.5003
vn 0.8659 0.0000 -0.5003
vn -0.3493 0.7155 -0.6050
vn -0.8660 0.0000 0.5000
vn 0.8660 0.0000 -0.5000
usemtl None
s off
f 15/1/1 19/2/1 24/3/1
f 19/2/2 6/4/2 5/5/2
f 8/6/3 70/7/3 71/8/3
f 8/9/4 25/10/4 26/11/4
f 31/12/5 32/13/5 16/14/5
f 31/15/6 34/16/6 45/17/6
f 18/18/7 17/19/7 35/20/7
f 29/21/8 14/22/8 7/23/8
f 22/24/1 3/25/1 14/26/1
f 24/3/1 20/27/1 22/24/1
f 17/28/1 13/29/1 1/30/1
f 21/31/1 14/26/1 13/29/1
f 18/32/1 21/31/1 17/28/1
f 23/33/9 54/34/9 21/31/9
f 2/35/1 23/33/1 18/32/1
f 16/36/1 24/3/1 23/33/1
f 39/37/6 11/38/6 30/39/6
f 42/40/6 36/41/6 39/37/6
f 45/17/6 35/20/6 42/40/6
f 27/42/6 28/43/6 9/44/6
f 37/45/6 29/46/6 28/43/6
f 38/47/6 30/39/6 29/46/6
f 26/11/6 37/45/6 27/42/6
f 40/48/6 38/47/6 37/45/6
f 39/37/10 49/49/10 42/40/10
f 25/10/6 40/48/6 26/11/6
f 40/48/5 51/50/5 41/51/5
f 44/52/6 42/40/6 41/51/6
f 10/53/6 43/54/6 25/10/6
f 43/54/6 32/55/6 44/52/6
f 44/52/6 31/15/6 45/17/6
f 48/56/6 47/57/6 46/58/6
f 42/40/8 48/56/8 41/51/8
f 41/51/11 46/58/11 38/47/11
f 38/47/5 47/57/5 39/37/5
f 52/59/6 51/50/6 50/60/6
f 43/54/11 50/60/11 40/48/11
f 44/52/8 52/59/8 43/54/8
f 41/51/10 53/61/10 44/52/10
f 56/62/1 55/63/1 54/34/1
f 21/31/5 55/63/5 22/24/5
f 22/24/12 57/64/12 24/3/12
f 24/3/8 56/62/8 23/33/8
f 70/65/13 74/66/13 93/67/13
f 6/4/14 62/68/14 63/69/14
f 7/70/15 77/71/15 76/72/15
f 68/73/16 7/23/16 67/74/16
f 81/75/13 60/76/13 69/77/13
f 85/78/13 77/71/13 81/75/13
f 89/79/13 76/72/13 85/78/13
f 93/67/13 75/80/13 89/79/13
f 65/81/13 66/82/13 58/83/13
f 78/84/13 67/85/13 66/82/13
f 79/86/13 68/87/13 67/85/13
f 80/88/13 69/77/13 68/87/13
f 64/89/13 78/84/13 65/81/13
f 78/84/5 103/90/5 79/86/5
f 83/91/13 80/88/13 79/86/13
f 80/88/8 107/92/8 81/75/8
f 63/69/13 82/93/13 64/89/13
f 86/94/13 83/91/13 82/93/13
f 87/95/13 84/96/13 83/91/13
f 88/97/13 85/78/13 84/96/13
f 62/68/13 86/94/13 63/69/13
f 90/98/17 98/99/17 86/94/17
f 91/100/13 88/97/13 87/95/13
f 93/67/5 96/101/5 92/102/5
f 59/103/13 90/98/13 62/68/13
f 73/104/13 91/100/13 90/98/13
f 72/105/13 92/102/13 91/100/13
f 71/106/13 93/67/13 92/102/13
f 96/101/13 95/107/13 94/108/13
f 89/79/17 97/109/17 93/67/17
f 89/79/8 94/108/8 95/107/8
f 92/102/18 94/108/18 88/97/18
f 100/110/13 99/111/13 98/99/13
f 91/100/8 100/110/8 90/98/8
f 87/95/18 101/112/18 91/100/18
f 87/95/5 98/99/5 99/111/5
f 104/113/13 103/90/13 102/114/13
f 82/93/17 102/114/17 78/84/17
f 82/93/8 105/115/8 104/113/8
f 79/86/18 105/115/18 83/91/18
f 108/116/13 107/92/13 106/117/13
f 84/96/18 106/117/18 80/88/18
f 84/96/5 109/118/5 108/116/5
f 81/75/17 109/118/17 85/78/17
f 15/1/1 4/119/1 19/2/1
f 5/5/2 3/25/2 20/27/2
f 19/2/2 4/119/2 6/4/2
f 5/5/2 20/27/2 19/2/2
f 59/120/3 6/121/3 73/122/3
f 6/121/3 8/6/3 72/123/3
f 73/122/3 6/121/3 72/123/3
f 8/6/3 61/124/3 70/7/3
f 71/8/3 72/123/3 8/6/3
f 9/44/4 7/70/4 27/42/4
f 7/70/4 8/9/4 26/11/4
f 27/42/4 7/70/4 26/11/4
f 8/9/4 10/53/4 25/10/4
f 6/121/5 4/125/5 15/126/5
f 16/14/5 2/127/5 31/12/5
f 2/127/5 12/128/5 31/12/5
f 6/121/5 15/126/5 32/13/5
f 15/126/5 16/14/5 32/13/5
f 10/129/5 8/6/5 33/130/5
f 8/6/5 6/121/5 32/13/5
f 33/130/5 8/6/5 32/13/5
f 31/15/6 12/131/6 34/16/6
f 1/132/7 11/38/7 36/41/7
f 35/20/7 34/16/7 18/18/7
f 34/16/7 12/131/7 2/133/7
f 1/132/7 36/41/7 17/19/7
f 36/41/7 35/20/7 17/19/7
f 2/133/7 18/18/7 34/16/7
f 11/134/8 1/135/8 30/136/8
f 1/135/8 13/137/8 30/136/8
f 14/22/8 3/138/8 5/139/8
f 13/137/8 14/22/8 29/21/8
f 30/136/8 13/137/8 29/21/8
f 28/140/8 29/21/8 7/23/8
f 14/22/8 5/139/8 7/23/8
f 7/23/8 9/141/8 28/140/8
f 22/24/1 20/27/1 3/25/1
f 24/3/1 19/2/1 20/27/1
f 17/28/1 21/31/1 13/29/1
f 21/31/1 22/24/1 14/26/1
f 18/32/1 23/33/1 21/31/1
f 23/33/9 56/62/9 54/34/9
f 2/35/1 16/36/1 23/33/1
f 16/36/1 15/1/1 24/3/1
f 39/37/6 36/41/6 11/38/6
f 42/40/6 35/20/6 36/41/6
f 45/17/6 34/16/6 35/20/6
f 27/42/6 37/45/6 28/43/6
f 37/45/6 38/47/6 29/46/6
f 38/47/6 39/37/6 30/39/6
f 26/11/6 40/48/6 37/45/6
f 40/48/6 41/51/6 38/47/6
f 39/37/10 47/57/10 49/49/10
f 25/10/6 43/54/6 40/48/6
f 40/48/5 50/60/5 51/50/5
f 44/52/6 45/17/6 42/40/6
f 10/53/6 33/142/6 43/54/6
f 43/54/6 33/142/6 32/55/6
f 44/52/6 32/55/6 31/15/6
f 48/56/6 49/49/6 47/57/6
f 42/40/8 49/49/8 48/56/8
f 41/51/11 48/56/11 46/58/11
f 38/47/5 46/58/5 47/57/5
f 52/59/6 53/61/6 51/50/6
f 43/54/11 52/59/11 50/60/11
f 44/52/8 53/61/8 52/59/8
f 41/51/10 51/50/10 53/61/10
f 56/62/1 57/64/1 55/63/1
f 21/31/5 54/34/5 55/63/5
f 22/24/12 55/63/12 57/64/12
f 24/3/8 57/64/8 56/62/8
f 70/65/13 61/143/13 74/66/13
f 58/83/14 5/5/14 65/81/14
f 5/5/14 6/4/14 63/69/14
f 65/81/14 5/5/14 64/89/14
f 6/4/14 59/103/14 62/68/14
f 63/69/14 64/89/14 5/5/14
f 61/143/15 8/9/15 74/66/15
f 8/9/15 7/70/15 75/80/15
f 74/66/15 8/9/15 75/80/15
f 7/70/15 60/76/15 77/71/15
f 76/72/15 75/80/15 7/70/15
f 60/144/16 7/23/16 69/145/16
f 7/23/16 5/139/16 67/74/16
f 69/145/16 7/23/16 68/73/16
f 5/139/16 58/146/16 66/147/16
f 5/139/16 66/147/16 67/74/16
f 81/75/13 77/71/13 60/76/13
f 85/78/13 76/72/13 77/71/13
f 89/79/13 75/80/13 76/72/13
f 93/67/13 74/66/13 75/80/13
f 65/81/13 78/84/13 66/82/13
f 78/84/13 79/86/13 67/85/13
f 79/86/13 80/88/13 68/87/13
f 80/88/13 81/75/13 69/77/13
f 64/89/13 82/93/13 78/84/13
f 78/84/5 102/114/5 103/90/5
f 83/91/13 84/96/13 80/88/13
f 80/88/8 106/117/8 107/92/8
f 63/69/13 86/94/13 82/93/13
f 86/94/13 87/95/13 83/91/13
f 87/95/13 88/97/13 84/96/13
f 88/97/13 89/79/13 85/78/13
f 62/68/13 90/98/13 86/94/13
f 90/98/17 100/110/17 98/99/17
f 91/100/13 92/102/13 88/97/13
f 93/67/5 97/109/5 96/101/5
f 59/103/13 73/104/13 90/98/13
f 73/104/13 72/105/13 91/100/13
f 72/105/13 71/106/13 92/102/13
f 71/106/13 70/65/13 93/67/13
f 96/101/13 97/109/13 95/107/13
f 89/79/17 95/107/17 97/109/17
f 89/79/8 88/97/8 94/108/8
f 92/102/18 96/101/18 94/108/18
f 100/110/13 101/112/13 99/111/13
f 91/100/8 101/112/8 100/110/8
f 87/95/18 99/111/18 101/112/18
f 87/95/5 86/94/5 98/99/5
f 104/113/13 105/115/13 103/90/13
f 82/93/17 104/113/17 102/114/17
f 82/93/8 83/91/8 105/115/8
f 79/86/18 103/90/18 105/115/18
f 108/116/13 109/118/13 107/92/13
f 84/96/18 108/116/18 106/117/18
f 84/96/5 85/78/5 109/118/5
f 81/75/17 107/92/17 109/118/17
